<svg width="19" height="27" viewBox="0 0 19 27" fill="none" xmlns="http://www.w3.org/2000/svg">
<path d="M17.5 2.06157L17.5359 3.06093C18.022 3.04345 18.4251 2.67869 18.4908 2.19671C18.5565 1.71473 18.2659 1.25537 17.8022 1.10834L17.5 2.06157ZM18.5 24.5616L18.7279 25.5353L18.6265 23.5696L18.5 24.5616ZM17.8022 1.10834C12.4066 -0.602481 8.07118 0.353618 5.066 2.83766C2.09925 5.28995 0.566816 9.1185 0.50014 12.919C0.43339 16.7237 1.83393 20.6283 4.90207 23.2166C7.9945 25.8253 12.6213 26.9645 18.7279 25.5353L18.2721 23.5879C12.6287 24.9087 8.69298 23.7979 6.19166 21.6878C3.66604 19.5573 2.44158 16.2744 2.49983 12.9541C2.55816 9.62961 3.90073 6.39567 6.34022 4.37921C8.7413 2.39451 12.3434 1.47562 17.1977 3.0148L17.8022 1.10834ZM18.6265 23.5696C13.2133 22.8793 10.629 17.9878 10.6581 12.8665C10.6725 10.331 11.344 7.87551 12.5485 6.06269C13.741 4.26788 15.4227 3.13691 17.5359 3.06093L17.4641 1.06222C14.5773 1.16601 12.3534 2.74224 10.8826 4.95589C9.42381 7.15154 8.67434 10.0058 8.65814 12.8551C8.62601 18.5036 11.5417 24.6823 18.3735 25.5536L18.6265 23.5696Z" fill="white"/>
</svg>
